<?xml version="1.0" encoding="UTF-8"?>
<svg id="Layer_2" data-name="Layer 2" xmlns="http://www.w3.org/2000/svg" viewBox="0 0 643.03 328.87">
  <defs>
    <style>
      .cls-1 {
        fill: #19b4f2;
      }
    </style>
  </defs>
  <g id="BANG">
    <g>
      <path id="G" class="cls-1" d="m566.64,267.63l59.41-13.44s13.61-3.32,13.61-19.09l1.53-44.29c-.07-1.81-2.26-2.19-2.26-2.19l-36.68,8.24-.77,25.34,6.53-1.34-.08,6.06-15.82,3.64,2.76-81.96,9.07-2.09-1.35,41.09s.45,2.66,3.55,2.37l32.66-7.49s2.35-1.07,2.79-3.43l1.43-41.5s-.53-16.37-17.79-15.01l-55.68,12.58s-10.92,4.33-12.62,16.12l-1.78,106.46s.65,10.49,11.49,9.91Z"/>
      <path id="N" class="cls-1" d="m545.42,272.43l-25.4,5.74c-1.56.06-2.96-1.69-2.96-1.69l-16.7-57.13h-.45s.5,60.96.5,60.96c-.59,2.11-2.01,2.75-2.01,2.75l-20.24,4.58c-3.17-.24-3.48-3.37-3.48-3.37l-1.09-124.99c0-2.1,2.86-3.11,2.86-3.11l23.12-5.23s3.68-.55,4.88,3.05l16.35,56.79h.47s-1.35-61.63-1.35-61.63c.24-2.25,2.2-3.32,2.2-3.32l19.42-4.39s4.21-.67,4.87,3.63l.98,124.16s0,1.9-1.98,3.16Z"/>
      <path class="cls-1" d="m380.75,234.07l1.38-37.83c-2.52-17.44-18.5-14.56-18.5-14.56l-63.8,14.42s-3.44,1.23-3.56,3.64l-2.8,127.46s.9,1.88,2.51,1.65l69.47-15.71c12.5-4.99,13.07-17.92,13.07-17.92l1.47-40.45c-.52-9.28-6.44-9.45-6.44-9.45,0,0,6.22-2.64,7.19-11.25Zm-40.76,65.04l-8.62,2.04,1.35-37.99,8.6-1.92-1.33,37.87Zm1.95-55.42l-8.6,1.91,1.34-37.89,8.59-1.98-1.33,37.95Z"/>
      <path class="cls-1" d="m470.21,286.69l-17.84-121.28c-.57-3.22-4.01-2.88-4.01-2.88l-42.18,9.53s-2.37.54-2.67,3.58l-19.05,131.1s.17,2.05,2.25,1.58l26.19-5.92s1.53-.81,1.95-2.46l2.53-20.97,20.74-4.7,2.71,20.38c.56,1.12,1.64,1.05,1.64,1.05l25.59-5.79c2.43-1.13,2.14-3.23,2.14-3.23Zm-49.77-33.03l7.11-58.83,7.39,55.49-14.5,3.34Z"/>
    </g>
  </g>
  <g id="WINTER">
    <g>
      <path id="R" class="cls-1" d="m477.09,123.2l-13.64-48.13s-.05-1.08.21-1.29c0,0,9.52-7.98,9.52-16.94l-.46-35.98s-.72-23.42-22.34-20.64l-49.34,10.88s-1.48.82-1.48,2.54l1.09,127.2c.63,1.53,1.77,1.48,1.77,1.48l27.08-5.98s.96-.5,1.08-1.34l-.7-43.28c-.03-.49.36-.82.36-.82l6.11-1.4s.6-.12.84.53l9.69,40.54c.82,1.33,2.18,1.46,2.18,1.46l26.57-5.86s1.97-1.12,1.45-2.98Zm-37.98-59.38l-9.1,2.05-1.29-34.95,9.47-2.1c4.43-.67,4.69,5.85,4.69,5.85l.54,23.9c-1.29,4.37-4.32,5.26-4.32,5.26Z"/>
      <path id="E" class="cls-1" d="m332.64,157.74h0s-1.71-1.09-1.86-2.93l-1.02-126.55c-.01-1.27,1.45-1.75,1.45-1.75l58.29-12.86s2.01.22,2.4,2.17v24.23l-32.27,7.31.02,24.25,23.97-5.65s2.55-.06,2.79,2.15l.32,22.69c.03,1.25-1.78,1.94-1.78,1.94l-25.42,5.75.07,26.77,31.15-7.16s1.86-.19,1.99,1.66v23.11c0,1.21-1.06,1.83-1.06,1.83l-59.03,13.03Z"/>
      <path id="T" class="cls-1" d="m248.82,72.38c-2.5.45-3.32-1.82-3.32-1.82v-22.25c.09-2.18,2.58-3.46,2.58-3.46l71.16-15.7s1.55.22,1.83,1.6v24.25c0,.75-.92,1.18-.92,1.18l-20.18,4.55.74,101.14c.02,1.94-2.2,3.39-2.2,3.39l-25.37,5.6c-2-.45-2.51-2.51-2.51-2.51l-.86-100.21s-.24-.56-1-.31l-19.95,4.55Z"/>
      <path id="N-2" data-name="N" class="cls-1" d="m169.71,193.69l21.48-4.74s1.61-.81,1.8-2.56l-.33-60.88,16.8,57.01c1.18,2.14,3.27,1.68,3.27,1.68l25.51-5.63s1.59-.73,1.72-2.84l-.95-124.58c-.63-3.66-3.98-3.41-3.98-3.41l-19.99,4.41c-2.05.47-2.47,2.77-2.47,2.77l1.05,62.08-16.66-57.15c-1.39-3.14-4.92-2.63-4.92-2.63l-23.62,5.21c-2.41,1.04-2.2,3.1-2.2,3.1l.97,125.32c.62,2.61,2.53,2.85,2.53,2.85Z"/>
      <path id="I" class="cls-1" d="m154.53,197.05l-26.81,5.92s-1.19.05-1.93-1.34l-.99-128.6c.02-.7.98-1.19.98-1.19l26.95-5.95s1.33-.04,1.81,1.64l.98,127.79s-.14,1.04-.98,1.72Z"/>
      <path id="W" class="cls-1" d="m105.68,206.15c-.09,1.6-1.48,2.01-1.48,2.01l-35.4,7.81c-1.38-.26-1.76-1.72-1.76-1.72l-7.29-58.75-6.3,63.08c-.06.62-1.06,1.22-1.06,1.22l-34.08,7.54c-2.62-.38-3.48-2.19-3.48-2.19L0,100.57c.04-1.05.92-1.2.92-1.2l26.8-5.91s1.84.23,1.99,2.15l6.71,86.38,6.53-90.64c.04-1.02.81-1.42.81-1.42l24.59-5.43s1.29-.21,1.54,1.34l11.93,86.54,6.66-91.4c.17-1.09,1.18-1.18,1.18-1.18l24.43-5.39c.71.02.81.58.81.58l-9.22,131.15Z"/>
    </g>
  </g>
</svg>